<svg width="363" height="367" viewBox="0 0 363 367"  xmlns="http://www.w3.org/2000/svg">
<path d="M363 367L140.237 281.448L115.926 272.221L0 129.968L363 367ZM116.372 339.872H0L92.1719 327.532L116.372 339.872ZM124.457 338.149L98.9746 325.03L119.494 305.352L124.457 338.149ZM323.02 322.584L4.07031 124.242L97.5811 81.0488L323.02 322.584ZM125.126 281.782L135.386 285.729L120.052 300.404L116.818 278.558L125.126 281.782ZM92.8408 33.9092L92.9521 35.1318L96.5215 74.2119L5.46484 116.182L90.0527 1.50098L92.8408 33.9092ZM174.53 35.5215L99.4209 32.5195L96.5215 0L174.53 35.5215Z"/>
</svg>
