<?xml version="1.0" encoding="UTF-8" standalone="no"?>
<svg
   width="1916.9298"
   height="479.23245"
   viewBox="0 0 1916.9298 479.23245"
   fill="none"
   version="1.1"
   id="svg25"
   sodipodi:docname="logotype.svg"
   inkscape:version="1.2.2 (b0a8486541, 2022-12-01)"
   xmlns:inkscape="http://www.inkscape.org/namespaces/inkscape"
   xmlns:sodipodi="http://sodipodi.sourceforge.net/DTD/sodipodi-0.dtd"
   xmlns="http://www.w3.org/2000/svg"
   xmlns:svg="http://www.w3.org/2000/svg">
  <sodipodi:namedview
     id="namedview27"
     pagecolor="#ffffff"
     bordercolor="#000000"
     borderopacity="0.25"
     inkscape:showpageshadow="2"
     inkscape:pageopacity="0.0"
     inkscape:pagecheckerboard="0"
     inkscape:deskcolor="#d1d1d1"
     showgrid="false"
     inkscape:zoom="0.54841886"
     inkscape:cx="1021.1173"
     inkscape:cy="309.07033"
     inkscape:window-width="1920"
     inkscape:window-height="1026"
     inkscape:window-x="1920"
     inkscape:window-y="20"
     inkscape:window-maximized="1"
     inkscape:current-layer="svg25" />
  <g
     clip-path="url(#clip0_461_639)"
     id="g18"
     transform="matrix(1.301077,0,0,1.301077,-193.28292,0.54140452)">
    <path
       d="m 165.096,162.22 c 25.428,8.991 44.1,20.534 55.892,34.629 11.793,14.094 17.812,32.562 17.812,55.284 0,33.048 -10.687,57.228 -32.184,72.415 -21.374,15.188 -49.873,22.722 -85.373,22.722 -28.8676,0 -53.6812,-4.982 -74.1954,-14.945 C 26.5334,322.361 10.8099,309.725 0,294.537 v -101.82 h 8.35309 c 0.73704,26.488 6.01911,49.817 15.96911,69.743 9.95,20.048 23.4624,35.479 40.7828,46.536 17.1975,11.057 36.852,16.525 58.84,16.525 23.708,0 42.011,-5.711 54.909,-17.011 12.899,-11.421 19.286,-26.366 19.286,-44.956 0,-14.824 -4.053,-27.338 -12.038,-37.666 -7.985,-10.328 -20.883,-18.469 -38.694,-24.301 L 73.7038,175.707 C 51.347,167.809 35.0093,157.603 24.5679,145.21 14.1266,132.816 8.84445,116.292 8.84445,95.6364 8.84445,80.4485 12.8982,66.3541 21.1284,53.2317 29.3587,40.1094 42.0111,29.5386 59.2087,21.3979 76.4062,13.2572 97.6575,9.24756 122.717,9.24756 c 20.145,0 39.063,3.03754 56.752,8.99124 17.566,6.0752 32.675,14.5804 45.205,25.6372 l 4.176,88.94 h -7.862 C 211.284,64.2885 178.609,30.0246 123.331,30.0246 c -24.6908,0 -43.3624,5.4677 -55.8921,16.2814 -12.5296,10.8138 -18.7944,24.5437 -18.7944,41.0682 0,11.0567 3.1938,20.5338 9.4586,28.4318 6.2649,7.898 16.5834,14.337 30.8328,19.076 l 76.2831,27.338 z"
       fill="#fffdfa"
       id="path2" />
    <path
       d="m 428.464,133.302 h -80.46 v 144.711 c 0,28.918 12.161,43.376 36.607,43.376 11.792,0 20.391,-3.523 25.55,-10.57 5.159,-7.048 8.353,-14.338 9.459,-21.992 h 7.37 c 0,12.757 -3.808,25.637 -11.547,38.759 -7.739,13.122 -22.971,19.684 -45.942,19.684 -20.145,0 -35.5,-5.954 -45.696,-17.861 -10.319,-11.908 -15.355,-29.04 -15.355,-51.396 V 133.302 h -35.992 v -16.038 c 20.514,-3.402 35.746,-11.543 45.696,-24.3007 9.95,-12.7578 15.969,-31.2263 18.058,-55.284 h 12.038 v 80.6777 l 37.098,-8.262 h 43.362 v 23.207 z"
       fill="#fffdfa"
       id="path4" />
    <path
       d="m 656.824,305.351 c 0,10.692 2.334,17.982 7.001,21.992 4.668,4.01 11.547,5.954 20.637,5.954 v 10.327 H 621.2 v -69.742 h -2.088 c -11.179,48.965 -36.729,73.388 -76.775,73.388 -20.883,0 -37.22,-6.562 -48.89,-19.684 -11.67,-13.122 -17.566,-33.413 -17.566,-60.995 0,-14.823 1.965,-28.796 5.773,-41.918 l 137.949,-13.487 v -10.814 c 0,-23.45 -4.054,-41.918 -12.284,-55.284 -8.23,-13.487 -21.988,-20.169 -41.52,-20.169 -15.723,0 -27.516,4.009 -35.5,11.907 -7.985,7.898 -12.039,17.618 -12.039,28.918 0,8.262 2.089,14.823 6.265,19.683 v 1.58 l -39.186,4.131 c -2.825,-6.197 -4.176,-13.122 -4.176,-20.656 0,-18.225 7.493,-33.656 22.48,-46.292 14.986,-12.515 36.606,-18.833 64.736,-18.833 26.165,0 45.574,5.467 58.472,16.524 12.898,11.057 21.128,24.301 24.568,39.853 3.439,15.553 5.282,33.778 5.282,54.798 v 88.94 z m -57.489,-10.328 c 10.81,-18.59 17.197,-42.769 19.285,-72.294 l -99.745,17.618 c -2.457,8.626 -3.686,18.59 -3.686,30.011 0,35.114 13.022,52.732 39.186,52.732 19.163,0 34.15,-9.355 44.96,-27.945 z"
       fill="#fffdfa"
       id="path6" />
    <path
       d="m 890.341,111.796 c 7.371,3.281 12.898,7.534 16.706,12.637 l -15.723,42.404 -3.685,-0.972 c 0.368,-7.533 -2.334,-14.216 -8.108,-19.926 -5.773,-5.711 -13.635,-8.505 -23.831,-8.505 -18.057,0 -32.798,10.57 -44.099,31.833 -11.301,21.142 -16.952,56.256 -16.952,105.222 v 30.984 c 0,10.692 2.334,17.982 7.002,21.992 4.668,4.009 11.547,5.953 20.637,5.953 v 10.328 h -95.569 v -10.328 c 9.09,0 15.969,-1.944 20.882,-5.953 4.914,-4.01 7.371,-11.3 7.371,-21.992 V 148.369 c 0,-10.692 -2.457,-17.983 -7.371,-21.992 -4.913,-4.01 -11.792,-5.954 -20.882,-5.954 v -10.328 h 67.93 v 83.23 h 0.983 c 3.808,-23.086 11.547,-43.255 22.971,-60.509 11.547,-17.253 27.147,-25.88 47.047,-25.88 9.09,0 17.198,1.58 24.568,4.86 z"
       fill="#fffdfa"
       id="path8" />
    <path
       d="m 1012.32,327.343 c 4.67,4.01 11.55,5.954 20.64,5.954 v 10.328 h -95.08 v -10.328 c 9.09,0 15.97,-1.944 20.883,-5.954 4.914,-4.01 7.371,-11.3 7.371,-21.992 V 52.6242 c 0,-10.6923 -2.457,-17.9824 -7.371,-21.9921 C 953.85,26.6225 946.97,24.6785 937.88,24.6785 V 14.3507 h 67.44 V 305.351 c 0,10.692 2.33,17.982 7,21.992 z"
       fill="#fffdfa"
       id="path10" />
    <path
       d="m 1153.96,327.343 c 4.66,4.01 11.54,5.954 20.63,5.954 v 10.328 h -95.08 v -10.328 c 9.09,0 15.97,-1.944 20.89,-5.954 4.91,-4.01 7.37,-11.3 7.37,-21.992 V 148.247 c 0,-10.692 -2.46,-17.982 -7.37,-21.992 -4.92,-4.009 -11.8,-5.953 -20.89,-5.953 v -10.328 h 67.44 v 195.377 c 0,10.692 2.34,17.982 7.01,21.992 z M 1127.05,68.1767 1093.03,34.0342 1127.05,0.985352 1160.96,34.0342 Z"
       fill="#fffdfa"
       id="path12" />
    <path
       d="m 1431.57,305.351 c 0,10.692 2.34,17.982 7,21.992 4.67,4.01 11.55,5.954 20.64,5.954 v 10.327 h -95.57 v -10.327 c 9.09,0 15.97,-1.944 20.88,-5.954 4.92,-4.01 7.38,-11.3 7.38,-21.992 V 194.175 c 0,-23.814 -3.08,-40.946 -9.22,-51.638 -6.14,-10.693 -16.83,-16.039 -32.18,-16.039 -18.43,0 -33.66,9.842 -45.45,29.404 -11.79,19.683 -17.81,51.153 -17.81,94.529 v 54.798 c 0,10.693 2.33,17.983 7,21.993 4.67,4.009 11.54,5.953 20.63,5.953 v 10.328 h -95.56 v -10.328 c 9.09,0 15.96,-1.944 20.88,-5.953 4.91,-4.01 7.37,-11.3 7.37,-21.993 V 148.126 c 0,-10.693 -2.46,-17.983 -7.37,-21.992 -4.92,-4.01 -11.79,-5.954 -20.88,-5.954 v -10.328 h 67.93 v 62.574 h 1.59 c 2.83,-18.225 10.57,-34.021 23.47,-47.264 12.89,-13.244 29.72,-19.927 50.73,-19.927 45.57,0 68.42,27.338 68.42,82.136 v 117.858 z"
       fill="#fffdfa"
       id="path14" />
    <path
       d="m 1720,109.974 v 7.29 l -52.82,14.459 c 7,5.832 12.9,13.73 17.81,23.814 4.91,9.964 7.25,21.142 7.25,33.657 0,14.094 -3.56,27.095 -10.69,39.002 -7.12,11.908 -17.44,21.385 -31.08,28.432 -13.63,7.047 -29.97,10.571 -49.13,10.571 -11.8,0 -23.83,-1.701 -36.12,-5.225 l -21.37,16.525 c 0.73,5.832 4.3,10.328 10.93,13.487 6.63,3.037 18.3,4.981 35.01,5.71 l 54.91,3.159 c 21.62,0.972 38.69,6.683 51.22,16.768 12.53,10.206 18.8,24.422 18.8,42.647 0,21.02 -9.09,38.031 -27.15,51.153 -18.06,13.123 -43.85,19.684 -77.27,19.684 -25.42,0 -46.8,-3.402 -64,-10.085 -17.19,-6.683 -29.72,-15.917 -37.58,-27.703 -7.87,-11.664 -10.94,-25.029 -9.09,-39.853 l 55.4,-27.338 c -13.64,-2.43 -24.08,-7.533 -31.57,-15.188 -7.5,-7.776 -11.18,-17.496 -11.18,-29.161 0,-3.402 0.12,-6.196 0.49,-8.262 l 42.87,-15.552 c -14.25,-6.561 -25.3,-16.16 -32.92,-28.675 -7.62,-12.636 -11.55,-26.974 -11.55,-43.134 0,-23.085 7.99,-42.283 23.83,-57.592 15.85,-15.31 38.08,-22.964 66.58,-22.964 12.16,0 22.85,1.579 31.82,4.617 h 86.72 z m -150.48,217.005 -36.11,30.497 c -0.37,1.701 -0.49,4.131 -0.49,7.29 0,14.094 6.75,25.88 20.14,35.114 13.39,9.356 31.82,13.973 55.16,13.973 23.34,0 40.41,-4.252 52.2,-12.879 11.8,-8.627 17.81,-19.684 17.81,-33.049 0,-23.815 -15.84,-36.329 -47.53,-37.666 l -61.18,-3.159 z m 69.53,-96.11 c 8.35,-11.421 12.53,-26.366 12.53,-44.956 0,-18.59 -4.18,-33.535 -12.53,-44.713 -8.35,-11.178 -20.76,-16.767 -37.1,-16.767 -16.34,0 -28.74,5.589 -37.1,16.767 -8.35,11.178 -12.53,26.123 -12.53,44.713 0,18.59 4.18,33.535 12.53,44.956 8.36,11.422 20.76,17.011 37.1,17.011 16.34,0 28.75,-5.711 37.1,-17.011 z"
       fill="#fffdfa"
       id="path16" />
  </g>
  <defs
     id="defs23">
    <clipPath
       id="clip0_461_639">
      <rect
         width="1720"
         height="430"
         fill="#ffffff"
         transform="translate(0,0.985352)"
         id="rect20"
         x="0"
         y="0" />
    </clipPath>
  </defs>
</svg>
